{"accessors":[{"bufferView":0,"byteOffset":0,"componentType":5126,"count":144,"max":[0.5,1.5,1.5],"min":[-0.5,-0.5,-1.5],"normalized":false,"type":"VEC3"},{"bufferView":1,"byteOffset":0,"componentType":5126,"count":144,"max":[0,0,0.000076,-1],"min":[-1,-1,-1,-1],"normalized":false,"type":"VEC4"},{"bufferView":2,"byteOffset":0,"componentType":5126,"count":144,"max":[1,1,1],"min":[-1,-1,-1],"normalized":false,"type":"VEC3"},{"bufferView":3,"byteOffset":0,"componentType":5126,"count":144,"max":[1,1],"min":[0,0],"normalized":false,"type":"VEC2"},{"bufferView":4,"byteOffset":0,"componentType":5125,"count":144,"max":[143],"min":[0],"normalized":false,"type":"SCALAR"},{"bufferView":5,"byteOffset":0,"componentType":5126,"count":48,"max":[-0.1,1.5,1.3],"min":[-0.4,0,-1.1],"normalized":false,"type":"VEC3"},{"bufferView":6,"byteOffset":0,"componentType":5126,"count":48,"max":[0,0,0.000015,1],"min":[-1,-1,-1,1],"normalized":false,"type":"VEC4"},{"bufferView":7,"byteOffset":0,"componentType":5126,"count":48,"max":[1,1,1],"min":[-1,-0.000015,-1],"normalized":false,"type":"VEC3"},{"bufferView":8,"byteOffset":0,"componentType":5126,"count":48,"max":[1,1],"min":[0,0],"normalized":false,"type":"VEC2"},{"bufferView":9,"byteOffset":0,"componentType":5125,"count":48,"max":[47],"min":[0],"normalized":false,"type":"SCALAR"},{"bufferView":10,"byteOffset":0,"componentType":5126,"count":60,"max":[0.4,1.5,1.3],"min":[0.1,0,-1.1],"normalized":false,"type":"VEC3"},{"bufferView":11,"byteOffset":0,"componentType":5126,"count":60,"max":[0,0,0.000015,1],"min":[-1,-1,-1,1],"normalized":false,"type":"VEC4"},{"bufferView":12,"byteOffset":0,"componentType":5126,"count":60,"max":[1,1,1],"min":[-1,-0.000015,-1],"normalized":false,"type":"VEC3"},{"bufferView":13,"byteOffset":0,"componentType":5126,"count":60,"max":[1,1],"min":[0,0],"normalized":false,"type":"VEC2"},{"bufferView":14,"byteOffset":0,"componentType":5125,"count":60,"max":[59],"min":[0],"normalized":false,"type":"SCALAR"},{"bufferView":15,"byteOffset":0,"componentType":5126,"count":36,"max":[0.3,1.3,-1.2],"min":[-0.3,-0.3,-1.5],"normalized":false,"type":"VEC3"},{"bufferView":16,"byteOffset":0,"componentType":5126,"count":36,"max":[0,0.000031,0.000015,1],"min":[-1,-1,-1,1],"normalized":false,"type":"VEC4"},{"bufferView":17,"byteOffset":0,"componentType":5126,"count":36,"max":[1,1,0.000015],"min":[-1,-1,-1],"normalized":false,"type":"VEC3"},{"bufferView":18,"byteOffset":0,"componentType":5126,"count":36,"max":[1,1],"min":[0,0],"normalized":false,"type":"VEC2"},{"bufferView":19,"byteOffset":0,"componentType":5125,"count":36,"max":[35],"min":[0],"normalized":false,"type":"SCALAR"},{"bufferView":20,"byteOffset":0,"componentType":5126,"count":36,"max":[0.277344,1,-1.4],"min":[-0.265674,0.7,-1.7],"normalized":false,"type":"VEC3"},{"bufferView":21,"byteOffset":0,"componentType":5126,"count":36,"max":[0,0,0.000076,-1],"min":[-1,-1,-1,-1],"normalized":false,"type":"VEC4"},{"bufferView":22,"byteOffset":0,"componentType":5126,"count":36,"max":[1,1,1],"min":[-1,-1,-1],"normalized":false,"type":"VEC3"},{"bufferView":23,"byteOffset":0,"componentType":5126,"count":36,"max":[1,1],"min":[0,0],"normalized":false,"type":"VEC2"},{"bufferView":24,"byteOffset":0,"componentType":5125,"count":36,"max":[35],"min":[0],"normalized":false,"type":"SCALAR"}],"asset":{"generator":"Godot Engine v4.2.2.stable.official@15073afe3856abd2aa1622492fe50026c7d63dc1","version":"2.0"},"bufferViews":[{"buffer":0,"byteLength":1728,"byteOffset":0},{"buffer":0,"byteLength":2304,"byteOffset":1728},{"buffer":0,"byteLength":1728,"byteOffset":4032},{"buffer":0,"byteLength":1152,"byteOffset":5760},{"buffer":0,"byteLength":576,"byteOffset":6912},{"buffer":0,"byteLength":576,"byteOffset":7488},{"buffer":0,"byteLength":768,"byteOffset":8064},{"buffer":0,"byteLength":576,"byteOffset":8832},{"buffer":0,"byteLength":384,"byteOffset":9408},{"buffer":0,"byteLength":192,"byteOffset":9792},{"buffer":0,"byteLength":720,"byteOffset":9984},{"buffer":0,"byteLength":960,"byteOffset":10704},{"buffer":0,"byteLength":720,"byteOffset":11664},{"buffer":0,"byteLength":480,"byteOffset":12384},{"buffer":0,"byteLength":240,"byteOffset":12864},{"buffer":0,"byteLength":432,"byteOffset":13104},{"buffer":0,"byteLength":576,"byteOffset":13536},{"buffer":0,"byteLength":432,"byteOffset":14112},{"buffer":0,"byteLength":288,"byteOffset":14544},{"buffer":0,"byteLength":144,"byteOffset":14832},{"buffer":0,"byteLength":432,"byteOffset":14976},{"buffer":0,"byteLength":576,"byteOffset":15408},{"buffer":0,"byteLength":432,"byteOffset":15984},{"buffer":0,"byteLength":288,"byteOffset":16416},{"buffer":0,"byteLength":144,"byteOffset":16704}],"buffers":[{"byteLength":16848,"uri":"toaster0.bin"}],"extensionsUsed":["GODOT_single_root"],"materials":[{"extensions":{},"pbrMetallicRoughness":{"baseColorFactor":[0.99999988079071,0.99999988079071,0.99999988079071,1],"metallicFactor":1,"roughnessFactor":0.189999997615814}},{"extensions":{},"pbrMetallicRoughness":{"baseColorFactor":[0,0,0,1],"metallicFactor":0,"roughnessFactor":1}},{"extensions":{},"pbrMetallicRoughness":{"baseColorFactor":[0,0,0,1],"metallicFactor":0,"roughnessFactor":1}},{"extensions":{},"pbrMetallicRoughness":{"baseColorFactor":[0,0,0,1],"metallicFactor":0,"roughnessFactor":1}},{"extensions":{},"pbrMetallicRoughness":{"baseColorFactor":[0,0,0,1],"metallicFactor":0,"roughnessFactor":1}}],"meshes":[{"extras":{"targetNames":[]},"primitives":[{"attributes":{"NORMAL":2,"POSITION":0,"TANGENT":1,"TEXCOORD_0":3},"indices":4,"material":0,"mode":4},{"attributes":{"NORMAL":7,"POSITION":5,"TANGENT":6,"TEXCOORD_0":8},"indices":9,"material":1,"mode":4},{"attributes":{"NORMAL":12,"POSITION":10,"TANGENT":11,"TEXCOORD_0":13},"indices":14,"material":2,"mode":4},{"attributes":{"NORMAL":17,"POSITION":15,"TANGENT":16,"TEXCOORD_0":18},"indices":19,"material":3,"mode":4},{"attributes":{"NORMAL":22,"POSITION":20,"TANGENT":21,"TEXCOORD_0":23},"indices":24,"material":4,"mode":4}]}],"nodes":[{"children":[1],"extensions":{},"name":"Toaster"},{"children":[2],"extensions":{},"mesh":0,"name":"CSGCombiner3D2"},{"children":[3,4,5,6],"extensions":{},"name":"CSGBox3D","translation":[0,0.5,0]},{"extensions":{},"name":"CSGBox3D2","translation":[-0.25,0.300000011920929,0.100000001490116]},{"extensions":{},"name":"CSGBox3D22","translation":[0.25,0.300000011920929,0.100000001490116]},{"extensions":{},"name":"CSGBox3D3","translation":[0.0000000223516991582073,0,-1.35000002384186]},{"extensions":{},"name":"CSGBox3D4","translation":[0.00583497015759349,0.349999994039536,-1.54999995231628]}],"scene":0,"scenes":[{"nodes":[0]}]}